<svg width="307" height="48" viewBox="0 0 307 48" fill="none" xmlns="http://www.w3.org/2000/svg">
<path d="M16.9062 0.28125H17.7812C19.6562 0.28125 21.3021 0.614583 22.7188 1.28125C23.7188 1.73958 24.2188 2.53125 24.2188 3.65625C24.2188 4.76042 23.9375 5.6875 23.375 6.4375C22.8333 7.16667 22.0938 7.53125 21.1562 7.53125C20.2396 7.53125 19.1562 7.33333 17.9062 6.9375C16.6562 6.52083 15.9688 6.3125 15.8438 6.3125C14.9062 6.3125 14.1146 6.78125 13.4688 7.71875C12.8438 8.63542 12.5312 9.84375 12.5312 11.3438C12.5312 12.8438 12.7708 13.9896 13.25 14.7812C13.3333 14.9271 14.3854 15.5938 16.4062 16.7812C17.8229 17.6146 18.5312 18.5417 18.5312 19.5625C18.5312 20.2917 17.6667 21 15.9375 21.6875C14.2292 22.3542 13.2604 22.9479 13.0312 23.4688C12.5312 24.6354 12.2812 27.3125 12.2812 31.5C12.2812 32.625 12.2708 33.4583 12.25 34L12.2188 34.8125L12.25 36.4375C12.25 38.4583 12.4896 39.9583 12.9688 40.9375C13.0729 41.1667 13.7292 41.8542 14.9375 43C16.1667 44.125 16.7812 45.0938 16.7812 45.9062C16.7812 46.6979 16.2188 47.2083 15.0938 47.4375C13.9688 47.6667 12.3542 47.7812 10.25 47.7812H8.53125C5.59375 47.7812 3.20833 47.6562 1.375 47.4062C0.458333 47.2812 0 46.7708 0 45.875C0 45.4792 0.458333 44.7708 1.375 43.75C2.3125 42.7292 2.94792 41.4375 3.28125 39.875C3.61458 38.2917 3.78125 35.3854 3.78125 31.1562C3.78125 26.9062 3.63542 24.3646 3.34375 23.5312C3.05208 22.6979 2.44792 21.9688 1.53125 21.3438C0.614583 20.7188 0.15625 20.0625 0.15625 19.375C0.15625 19.125 0.635417 18.2708 1.59375 16.8125C2.57292 15.3333 3.1875 14.0208 3.4375 12.875C4.72917 7.08333 7.53125 3.22917 11.8438 1.3125C13.4062 0.625 15.0938 0.28125 16.9062 0.28125ZM45.375 17.1875C46.3125 17.7292 46.7812 18.875 46.7812 20.625C46.7812 22.375 46.6562 23.5312 46.4062 24.0938C46.1562 24.6562 45.6667 24.9375 44.9375 24.9375C43.7708 24.9375 42.5104 24.0938 41.1562 22.4062C39.8229 20.7188 38.1354 19.875 36.0938 19.875C34.9271 19.875 34 20.1771 33.3125 20.7812C32.625 21.3854 32.2812 22.0521 32.2812 22.7812C32.2812 24.0312 32.8854 25.0729 34.0938 25.9062C34.6771 26.3021 36.5417 27.1667 39.6875 28.5C42.8542 29.8125 45.1146 31.1771 46.4688 32.5938C47.8438 33.9896 48.5312 35.8958 48.5312 38.3125C48.5312 40.7292 47.5 42.8333 45.4375 44.625C43.375 46.4167 40.7292 47.3125 37.5 47.3125H35.8438C31.8021 47.3125 28.7708 46.8333 26.75 45.875C25.3333 45.2083 24.625 43.625 24.625 41.125C24.625 38.625 25.0938 37.375 26.0312 37.375C27.2188 37.375 28.6875 38.3438 30.4375 40.2812C32.2083 42.2188 34.125 43.1875 36.1875 43.1875C37.4375 43.1875 38.4896 42.9271 39.3438 42.4062C40.2188 41.8646 40.6562 41.0312 40.6562 39.9062C40.6562 38.7604 40.0521 37.7396 38.8438 36.8438C38.1979 36.3646 36.4479 35.5208 33.5938 34.3125C30.7604 33.0833 28.7396 31.8958 27.5312 30.75C25.7188 29.0417 24.8125 26.9479 24.8125 24.4688C24.8125 21.9688 25.875 19.9062 28 18.2812C30.125 16.6354 32.6042 15.8125 35.4375 15.8125H36.2812C40.7396 15.8125 43.7708 16.2708 45.375 17.1875ZM94.75 39.9688C95.5625 39.9688 95.9688 40.5312 95.9688 41.6562C95.9688 42.7604 94.6562 43.9688 92.0312 45.2812C89.4062 46.5938 86.8438 47.25 84.3438 47.25H83.625C81.5625 47.25 79.6042 46.8438 77.75 46.0312C74.125 44.4479 71.625 41.75 70.25 37.9375C69.5833 36.0625 69.25 34.1979 69.25 32.3438V31.5938C69.25 27.3854 70.6354 23.7396 73.4062 20.6562C74.8021 19.1146 76.4896 17.9375 78.4688 17.125C80.4688 16.2917 82.5208 15.875 84.625 15.875C88.5833 15.875 91.6354 16.4688 93.7812 17.6562C95.0521 18.3646 95.6875 19.5208 95.6875 21.125C95.6875 24.0208 94.7708 25.4688 92.9375 25.4688C91.8125 25.4688 90.4792 24.6458 88.9375 23C87.4167 21.3542 85.8021 20.5312 84.0938 20.5312C82.0312 20.5312 80.3333 21.8125 79 24.375C78.25 25.8333 77.8646 28.1354 77.8438 31.2812C77.8438 31.3229 77.8438 31.3646 77.8438 31.4062C77.8438 34.4271 78.625 36.9167 80.1875 38.875C81.7708 40.8542 83.7812 41.8438 86.2188 41.8438C87.5729 41.8438 89.2292 41.5312 91.1875 40.9062C93.1667 40.2812 94.3542 39.9688 94.75 39.9688ZM115.75 19.8438H115.156C113.365 19.8438 111.896 20.8542 110.75 22.875C109.625 24.8958 109.062 27.3125 109.062 30.125V31.875C109.062 35.0417 109.719 37.7188 111.031 39.9062C112.344 42.0938 113.917 43.1875 115.75 43.1875H116.344C117.948 43.1875 119.344 42.375 120.531 40.75C121.74 39.1042 122.344 36.9167 122.344 34.1875L122.406 33.5312L122.438 32.2188V31.875L122.406 31.5312V30.875C122.365 30.4167 122.344 30.0833 122.344 29.875C122.344 27.1042 121.688 24.7396 120.375 22.7812C119.062 20.8229 117.521 19.8438 115.75 19.8438ZM115.781 15.6875H117.344C119.198 15.6875 121.104 16.125 123.062 17C126.792 18.6667 129.354 21.375 130.75 25.125C131.458 27.0625 131.812 29.0417 131.812 31.0625V31.625C131.812 33.7917 131.375 35.9167 130.5 38C129.625 40.0833 128.448 41.8125 126.969 43.1875C123.885 45.9792 120.344 47.375 116.344 47.375C116.031 47.375 115.719 47.3646 115.406 47.3438C113.406 47.3438 111.438 46.9479 109.5 46.1562C107.583 45.3438 106.01 44.2708 104.781 42.9375C102.135 40.0208 100.812 36.3646 100.812 31.9688V31.4375L100.844 30.9062C100.865 28.9688 101.229 27.0521 101.938 25.1562C103.312 21.5312 105.833 18.8542 109.5 17.125C111.562 16.1667 113.656 15.6875 115.781 15.6875ZM172.656 44.4375C172.656 45.2083 172.021 45.7812 170.75 46.1562C169.5 46.5104 167.385 46.6875 164.406 46.6875C161.448 46.6875 159.677 46.4792 159.094 46.0625C158.51 45.6458 158.219 45.1562 158.219 44.5938C158.219 44.0104 158.479 43.1354 159 41.9688C159.542 40.8021 159.875 39.8646 160 39.1562C160.125 38.4479 160.188 36.0521 160.188 31.9688C160.188 27.8854 159.833 25.1042 159.125 23.625C158.438 22.125 157.073 21.375 155.031 21.375C152.99 21.375 151.333 22.2604 150.062 24.0312C149.208 25.2188 148.781 27.3958 148.781 30.5625C148.781 35.7917 149.26 39.625 150.219 42.0625C150.802 43.4792 151.094 44.3958 151.094 44.8125C151.094 45.6042 150.615 46.1042 149.656 46.3125C148.698 46.5 146.615 46.5938 143.406 46.5938C140.219 46.5938 138.292 46.3854 137.625 45.9688C136.958 45.5312 136.625 44.9479 136.625 44.2188C136.625 43.4896 137.177 42.7604 138.281 42.0312C139.385 41.3021 140.01 40.6458 140.156 40.0625C140.302 39.4583 140.375 36.8125 140.375 32.125C140.375 27.4167 140.219 24.6667 139.906 23.875C139.594 23.0625 138.969 22.125 138.031 21.0625C137.094 20 136.625 19.4583 136.625 19.4375V18.7812C136.625 18.4271 136.885 18.1042 137.406 17.8125C139.219 16.7708 141.917 16.25 145.5 16.25C146.5 16.25 147.333 16.7396 148 17.7188C148.688 18.6979 149.188 19.1875 149.5 19.1875C149.812 19.1875 150.542 18.8542 151.688 18.1875C152.854 17.5 153.49 17.1354 153.594 17.0938C155.26 16.3229 156.812 15.9375 158.25 15.9375H159.25C162.896 15.9375 165.5 17.3958 167.062 20.3125C168.062 22.2083 168.562 26.7604 168.562 33.9688C168.562 37.8229 168.688 40.0208 168.938 40.5625C169.188 41.1042 169.865 41.7292 170.969 42.4375C172.094 43.125 172.656 43.7917 172.656 44.4375ZM191.469 19.9688H190.562C189.25 19.9688 187.99 20.6562 186.781 22.0312C185.594 23.3854 185 25.0104 185 26.9062V27.4062C185 28.1771 185.427 28.5625 186.281 28.5625L186.594 28.625H188.812L188.969 28.5938L194.188 28.2812C194.5 28.2188 194.708 28.1875 194.812 28.1875C195.875 28.1875 196.406 27.6354 196.406 26.5312V25.5C196.406 24.1042 195.906 22.8333 194.906 21.6875C193.906 20.5417 192.76 19.9688 191.469 19.9688ZM185.375 34.8438C185.375 36.9271 186.354 38.7292 188.312 40.25C189.771 41.3958 191.625 41.9688 193.875 41.9688C194.896 41.9688 196.406 41.6771 198.406 41.0938C200.427 40.5104 201.594 40.2188 201.906 40.2188C202.844 40.2188 203.312 40.7292 203.312 41.75C203.312 42.9583 202.062 44.1875 199.562 45.4375C197.083 46.6667 194.51 47.2812 191.844 47.2812H190.469C190.427 47.2812 190.375 47.2812 190.312 47.2812C188.625 47.2812 186.906 46.9375 185.156 46.25C181.698 44.9167 179.24 42.5833 177.781 39.25C176.781 36.9583 176.281 34.7812 176.281 32.7188V31.2812C176.281 29.1771 176.646 27.1458 177.375 25.1875C178.75 21.5 181.177 18.8438 184.656 17.2188C186.74 16.2604 188.927 15.7812 191.219 15.7812H191.938C195.333 15.7812 198.198 16.8333 200.531 18.9375C201.76 20.0625 202.698 21.4167 203.344 23C204.01 24.5833 204.344 26.1979 204.344 27.8438C204.344 29.4688 203.542 30.5417 201.938 31.0625C199.688 31.7917 195.521 32.1562 189.438 32.1562C187.812 32.1562 186.729 32.3646 186.188 32.7812C185.646 33.1771 185.375 33.8646 185.375 34.8438ZM252.375 16.5938C256.458 16.5938 258.51 17.1875 258.531 18.375C258.531 19.0625 257.229 20.1875 254.625 21.75C249.417 24.8958 246.812 27.4479 246.812 29.4062C246.812 30.1146 248.938 32.8958 253.188 37.75C254.667 39.4375 256.281 40.9479 258.031 42.2812C259.802 43.6146 260.688 44.5521 260.688 45.0938C260.688 45.6146 260.427 46.0104 259.906 46.2812C259.406 46.5312 257.542 46.6562 254.312 46.6562H253.094C249.969 46.6562 247.896 46.1458 246.875 45.125C246.271 44.5208 245.823 43.4792 245.531 42C245.26 40.5 244.792 39.2292 244.125 38.1875C242.604 35.7917 241.156 34.5938 239.781 34.5938C238.927 34.5938 238.5 35.6042 238.5 37.625C238.5 39.6458 238.927 41.4896 239.781 43.1562C240.156 43.8854 240.344 44.3333 240.344 44.5C240.344 45.4167 239.656 46.0417 238.281 46.375C237.573 46.5417 235.896 46.625 233.25 46.625C230.625 46.625 228.906 46.5208 228.094 46.3125C226.885 46 226.281 45.4583 226.281 44.6875C226.281 44.25 226.677 43.375 227.469 42.0625C228.281 40.7292 228.75 39.7083 228.875 39C229.188 37.2083 229.344 31.5938 229.344 22.1562C229.344 12.7188 229.219 7.67708 228.969 7.03125C228.719 6.36458 227.979 5.70833 226.75 5.0625C225.542 4.41667 224.938 3.70833 224.938 2.9375C224.938 2.14583 225.5 1.55208 226.625 1.15625C228.771 0.385417 231.125 0 233.688 0H234.781C236.094 0 236.938 0.760417 237.312 2.28125C237.583 3.36458 237.719 7.46875 237.719 14.5938C237.719 21.6979 237.75 25.4792 237.812 25.9375C238 27.3958 238.438 28.125 239.125 28.125C240.062 28.125 241.677 26.8542 243.969 24.3125C245.385 22.75 246.094 21.4167 246.094 20.3125L245.656 18.4375C245.656 17.7292 246.083 17.25 246.938 17C247.812 16.7292 249.625 16.5938 252.375 16.5938ZM267.969 6.09375C267.969 4.88542 268.438 3.86458 269.375 3.03125C270.333 2.19792 271.365 1.78125 272.469 1.78125H273.469C273.781 1.84375 274.042 1.875 274.25 1.875C275.25 1.875 276.135 2.32292 276.906 3.21875C277.677 4.11458 278.062 4.96875 278.062 5.78125V6.59375C278.021 6.80208 278 6.95833 278 7.0625C278 7.9375 277.51 8.79167 276.531 9.625C275.552 10.4583 274.469 10.875 273.281 10.875H272.312C271.146 10.875 270.135 10.5104 269.281 9.78125C268.448 9.03125 268.031 8.17708 268.031 7.21875L267.969 6.90625V6.09375ZM273.906 46.75H270.938C268.167 46.75 266.5 46.6771 265.938 46.5312C265.396 46.3646 265.125 45.9167 265.125 45.1875C265.125 44.4375 265.646 43.5417 266.688 42.5C267.729 41.4583 268.385 40.4167 268.656 39.375C268.927 38.3125 269.062 35.5729 269.062 31.1562C269.062 26.7188 268.948 24.1042 268.719 23.3125C268.49 22.5208 267.771 21.8438 266.562 21.2812C265.375 20.6979 264.781 20.0104 264.781 19.2188C264.781 18.4062 265.333 17.8125 266.438 17.4375C268.938 16.6042 271.698 16.1875 274.719 16.1875H275.188C276.396 16.1875 277.094 16.6979 277.281 17.7188C277.385 18.3021 277.438 21.8021 277.438 28.2188C277.438 34.6146 277.573 38.3646 277.844 39.4688C278.135 40.5521 278.865 41.7083 280.031 42.9375C281.198 44.1667 281.781 44.9375 281.781 45.25V45.625C281.781 46.375 279.156 46.75 273.906 46.75ZM287.062 20.6875C286.146 20.0625 285.688 19.4583 285.688 18.875C285.688 18.2708 286.24 17.6771 287.344 17.0938C288.448 16.5104 289.135 16.0417 289.406 15.6875C289.677 15.3333 290.104 14.3542 290.688 12.75C291.292 11.1458 291.927 9.91667 292.594 9.0625C293.26 8.1875 294.135 7.75 295.219 7.75C296.302 7.75 297.083 8.1875 297.562 9.0625C297.771 9.45833 298.042 10.3958 298.375 11.875C298.729 13.3542 299.146 14.3021 299.625 14.7188C300.104 15.1354 301.021 15.6042 302.375 16.125C303.729 16.625 304.427 16.8854 304.469 16.9062C305.177 17.4688 305.531 18.1354 305.531 18.9062C305.531 19.5729 304.542 20.1667 302.562 20.6875C300.604 21.2083 299.344 22 298.781 23.0625C298.24 24.125 297.969 26.7812 297.969 31.0312C297.969 35.2812 298.292 38.0417 298.938 39.3125C299.604 40.5833 300.688 41.2188 302.188 41.2188L303.312 41.125C303.812 41.0833 304.354 41.0625 304.938 41.0625C306.208 41.0625 306.844 41.5417 306.844 42.5C306.844 43.7292 306.073 44.7083 304.531 45.4375C302.323 46.4792 299.99 47 297.531 47C296.385 47 295.24 46.6875 294.094 46.0625C292.948 45.4375 292.073 44.6771 291.469 43.7812C290.281 42.0312 289.688 39.5312 289.688 36.2812L289.656 35.625C289.635 35.1667 289.625 34.6562 289.625 34.0938V32.25C289.625 28.6458 289.333 25.5729 288.75 23.0312C288.542 22.0938 287.979 21.3125 287.062 20.6875Z" fill="black"/>
</svg>
